<?xml version="1.0" standalone="no"?>
<!DOCTYPE svg PUBLIC "-//W3C//DTD SVG 20010904//EN"
 "http://www.w3.org/TR/2001/REC-SVG-20010904/DTD/svg10.dtd">
<svg version="1.0" xmlns="http://www.w3.org/2000/svg"
 width="500.000000pt" height="500.000000pt" viewBox="0 0 500.000000 500.000000"
 preserveAspectRatio="xMidYMid meet">
<metadata>
Created by potrace 1.14, written by Peter Selinger 2001-2017
</metadata>
<g transform="translate(0.000000,500.000000) scale(0.100000,-0.100000)"
fill="#000000" stroke="none">
<path d="M277 4383 c-3 -7 -2 -4071 2 -4098 1 -8 694 -11 2224 -10 l2222 0 0
2055 0 2055 -57 3 c-55 3 -58 2 -59 -20 0 -13 -1 -425 -1 -915 l-1 -893 -379
0 -378 0 0 108 0 108 -120 0 c-74 -1 -120 -5 -121 -11 0 -5 -2 -138 -3 -295
-3 -306 -8 -349 -53 -409 -47 -62 -151 -88 -234 -59 -80 28 -88 68 -87 443 0
160 -1 299 -1 311 -1 20 -6 21 -121 21 l-120 0 0 -119 0 -118 -362 2 -362 3
-1 275 0 274 -115 1 c-63 1 -121 -1 -127 -3 -10 -3 -13 -61 -13 -243 0 -184
-3 -239 -12 -239 -38 -1 -545 -1 -555 -1 -10 1 -13 57 -13 244 l0 242 -120 0
c-82 0 -123 -4 -128 -12 -4 -7 -7 -131 -7 -277 l0 -266 -391 0 -391 0 1 903
c1 496 -1 912 -3 925 -3 20 -9 22 -57 22 -29 0 -55 -3 -57 -7z m4329 -2925
l-1 -1063 -2106 -1 -2106 -1 0 1053 0 1054 391 -2 391 -3 0 -345 0 -345 128
-3 127 -3 0 296 0 295 290 0 290 0 0 -295 0 -295 128 0 128 0 0 348 0 347 362
3 362 2 0 -226 c0 -179 3 -238 16 -282 43 -149 152 -217 331 -208 108 6 173
42 237 128 15 21 31 36 34 33 4 -3 7 -36 7 -73 l1 -67 117 -3 117 -3 0 361 0
360 378 0 379 0 -1 -1062z"/>
</g>
</svg>
